# xmcd
#
# Track frame offsets:
#	150
#	18607
#	38642
#	57100
#
# Disc length: 1179 seconds
#
# Revision: 1
# Processed by: cddbd v1.5PL3 Copyright (c) Steve Scherf et al.
# Submitted via: CDex 1.50Beta5
#
DISCID=29049904
DTITLE=Do As Infinity - under the sun/under the moon
DYEAR=2002
DGENRE=Pop
TTITLE0=under the sun
TTITLE1=under the moon
TTITLE2=under the sun(Instrumental)
TTITLE3=under the moon(Instrumental)
EXTD=2002/07/31
EXTT0=
EXTT1=
EXTT2=
EXTT3=
PLAYORDER=
